<?xml version="1.0" encoding="UTF-8"?> <svg xmlns="http://www.w3.org/2000/svg" width="80" height="80" viewBox="0 0 80 80" fill="none"><rect opacity="0.1" width="80" height="80" rx="20" fill="#D9D9D9"></rect><g opacity="0.6"><mask id="mask0_2750_17416" style="mask-type:luminance" maskUnits="userSpaceOnUse" x="24" y="33" width="32" height="17"><path d="M24 33.2656H55.9869V49.9916H24V33.2656Z" fill="white"></path></mask><g mask="url(#mask0_2750_17416)"><path d="M39.9966 33.2656L24 40.5408L39.9966 49.9916L55.9869 40.5408L39.9966 33.2656Z" fill="white"></path></g></g><g opacity="0.45"><mask id="mask1_2750_17416" style="mask-type:luminance" maskUnits="userSpaceOnUse" x="24" y="14" width="16" height="36"><path d="M24 14H39.9966V49.9923H24V14Z" fill="white"></path></mask><g mask="url(#mask1_2750_17416)"><path d="M24 40.5415L39.9966 49.9923V14L24 40.5415Z" fill="white"></path></g></g><g opacity="0.8"><mask id="mask2_2750_17416" style="mask-type:luminance" maskUnits="userSpaceOnUse" x="39" y="14" width="17" height="36"><path d="M39.9971 14H55.9936V49.9923H39.9971V14Z" fill="white"></path></mask><g mask="url(#mask2_2750_17416)"><path d="M39.9971 14V49.9923L55.9874 40.5415L39.9971 14Z" fill="white"></path></g></g><g opacity="0.45"><mask id="mask3_2750_17416" style="mask-type:luminance" maskUnits="userSpaceOnUse" x="24" y="43" width="16" height="24"><path d="M24 43.5723H39.9966V66.1083H24V43.5723Z" fill="white"></path></mask><g mask="url(#mask3_2750_17416)"><path d="M24 43.5723L39.9966 66.1083V53.0231L24 43.5723Z" fill="white"></path></g></g><g opacity="0.8"><mask id="mask4_2750_17416" style="mask-type:luminance" maskUnits="userSpaceOnUse" x="39" y="43" width="17" height="24"><path d="M39.9971 43.5723H55.9999V66.1083H39.9971V43.5723Z" fill="white"></path></mask><g mask="url(#mask4_2750_17416)"><path d="M39.9971 53.0231V66.1083L55.9999 43.5723L39.9971 53.0231Z" fill="white"></path></g></g></svg> 