<?xml version="1.0" encoding="UTF-8"?> <svg xmlns="http://www.w3.org/2000/svg" width="103" height="103" viewBox="0 0 103 103" fill="none"><g opacity="0.1" filter="url(#filter0_b_2318_12506)"><rect width="103" height="103" rx="22" fill="white"></rect></g><mask id="mask0_2318_12506" style="mask-type:alpha" maskUnits="userSpaceOnUse" x="33" y="33" width="38" height="38"><rect x="33" y="33" width="38" height="38" fill="#D9D9D9"></rect></mask><g mask="url(#mask0_2318_12506)"><path d="M45.6712 61.4994H58.3379V58.3327H45.6712V61.4994ZM45.6712 55.166H58.3379V51.9994H45.6712V55.166ZM42.5046 67.8327C41.6337 67.8327 40.8882 67.5226 40.2681 66.9025C39.648 66.2823 39.3379 65.5369 39.3379 64.666V39.3327C39.3379 38.4618 39.648 37.7164 40.2681 37.0962C40.8882 36.4761 41.6337 36.166 42.5046 36.166H55.1712L64.6712 45.666V64.666C64.6712 65.5369 64.3612 66.2823 63.741 66.9025C63.1209 67.5226 62.3754 67.8327 61.5046 67.8327H42.5046ZM53.5879 47.2494H61.5046L53.5879 39.3327V47.2494Z" fill="white"></path></g><defs><filter id="filter0_b_2318_12506" x="-102.689" y="-102.689" width="308.379" height="308.379" filterUnits="userSpaceOnUse" color-interpolation-filters="sRGB"><feFlood flood-opacity="0" result="BackgroundImageFix"></feFlood><feGaussianBlur in="BackgroundImageFix" stdDeviation="51.3447"></feGaussianBlur><feComposite in2="SourceAlpha" operator="in" result="effect1_backgroundBlur_2318_12506"></feComposite><feBlend mode="normal" in="SourceGraphic" in2="effect1_backgroundBlur_2318_12506" result="shape"></feBlend></filter></defs></svg> 