<?xml version="1.0" encoding="UTF-8"?> <svg xmlns="http://www.w3.org/2000/svg" width="103" height="103" viewBox="0 0 103 103" fill="none"><g opacity="0.1" filter="url(#filter0_b_2318_12482)"><rect width="103" height="103" rx="22" fill="white"></rect></g><path d="M52 72.151C63.598 72.151 73 62.7152 73 51.0755C73 39.4358 63.598 30 52 30C40.402 30 31 39.4358 31 51.0755C31 62.7152 40.402 72.151 52 72.151Z" fill="white"></path><path d="M39.0632 38.8652L49.101 52.3347L38.9999 63.286H41.2735L50.1171 53.6977L57.2622 63.286H64.9985L54.3958 49.059L63.7978 38.8652H61.5243L53.3801 47.6955L46.7995 38.8652H39.0632ZM42.4065 40.5457H45.9605L61.6548 61.6055H58.1008L42.4065 40.5457Z" fill="#17191B"></path><defs><filter id="filter0_b_2318_12482" x="-102.689" y="-102.689" width="308.379" height="308.379" filterUnits="userSpaceOnUse" color-interpolation-filters="sRGB"><feFlood flood-opacity="0" result="BackgroundImageFix"></feFlood><feGaussianBlur in="BackgroundImageFix" stdDeviation="51.3447"></feGaussianBlur><feComposite in2="SourceAlpha" operator="in" result="effect1_backgroundBlur_2318_12482"></feComposite><feBlend mode="normal" in="SourceGraphic" in2="effect1_backgroundBlur_2318_12482" result="shape"></feBlend></filter></defs></svg> 