<?xml version="1.0" encoding="UTF-8"?> <svg xmlns="http://www.w3.org/2000/svg" width="1140" height="433" viewBox="0 0 1140 433" fill="none"><g filter="url(#filter0_b_2759_19379)"><rect x="1140" y="432" width="1140" height="432" rx="19" transform="rotate(180 1140 432)" fill="#484D52" fill-opacity="0.17"></rect></g><mask id="mask0_2759_19379" style="mask-type:alpha" maskUnits="userSpaceOnUse" x="0" y="0" width="1140" height="432"><rect x="1140" y="432" width="1140" height="432" rx="19" transform="rotate(180 1140 432)" fill="#484D52" fill-opacity="0.17"></rect></mask><g mask="url(#mask0_2759_19379)"><g filter="url(#filter1_f_2759_19379)"><path d="M578.554 0L745.416 216.087L578.554 432.175H725.19L892.052 216.087L725.19 0H578.554Z" fill="white"></path><path d="M578.554 0L745.416 216.087L578.554 432.175H725.19L892.052 216.087L725.19 0H578.554Z" fill="url(#paint0_linear_2759_19379)"></path></g><g opacity="0.2"><path d="M519.454 -39.5L718.138 216L519.454 471.5" stroke="white"></path><path opacity="0.9" d="M496.514 -39.5L695.198 216L496.514 471.5" stroke="white"></path><path opacity="0.8" d="M473.574 -39.5L672.258 216L473.574 471.5" stroke="white"></path><path opacity="0.7" d="M450.634 -39.5L649.318 216L450.634 471.5" stroke="white"></path><path opacity="0.6" d="M427.694 -39.5L626.378 216L427.694 471.5" stroke="white"></path><path opacity="0.5" d="M404.754 -39.5L603.438 216L404.754 471.5" stroke="white"></path><path opacity="0.4" d="M381.814 -39.5L580.498 216L381.814 471.5" stroke="white"></path><path opacity="0.3" d="M358.875 -39.5L557.558 216L358.875 471.5" stroke="white"></path><path opacity="0.2" d="M335.935 -39.5L534.618 216L335.935 471.5" stroke="white"></path><path opacity="0.1" d="M312.995 -39.5L511.678 216L312.995 471.5" stroke="white"></path></g><g opacity="0.2"><path d="M1127.95 -39.5L929.263 216L1127.95 471.5" stroke="white"></path><path opacity="0.9" d="M1150.89 -39.5L952.203 216L1150.89 471.5" stroke="white"></path><path opacity="0.8" d="M1173.83 -39.5L975.143 216L1173.83 471.5" stroke="white"></path><path opacity="0.7" d="M1196.77 -39.5L998.083 216L1196.77 471.5" stroke="white"></path><path opacity="0.6" d="M1219.71 -39.5L1021.02 216L1219.71 471.5" stroke="white"></path><path opacity="0.5" d="M1242.65 -39.5L1043.96 216L1242.65 471.5" stroke="white"></path><path opacity="0.4" d="M1265.59 -39.5L1066.9 216L1265.59 471.5" stroke="white"></path><path opacity="0.3" d="M1288.53 -39.5L1089.84 216L1288.53 471.5" stroke="white"></path><path opacity="0.2" d="M1311.47 -39.5L1112.78 216L1311.47 471.5" stroke="white"></path><path opacity="0.1" d="M1334.41 -39.5L1135.72 216L1334.41 471.5" stroke="white"></path></g></g><path d="M578.554 0L745.416 216.087L578.554 432.175H725.19L892.052 216.087L725.19 0H578.554Z" fill="white"></path><path d="M578.554 0L745.416 216.087L578.554 432.175H725.19L892.052 216.087L725.19 0H578.554Z" fill="url(#paint1_linear_2759_19379)"></path><path d="M1072.63 0L905.768 216.087L1072.63 432.175H925.994L759.132 216.087L925.994 0H1072.63Z" fill="url(#paint2_linear_2759_19379)"></path><defs><filter id="filter0_b_2759_19379" x="-54" y="-54" width="1248" height="540" filterUnits="userSpaceOnUse" color-interpolation-filters="sRGB"><feFlood flood-opacity="0" result="BackgroundImageFix"></feFlood><feGaussianBlur in="BackgroundImageFix" stdDeviation="27"></feGaussianBlur><feComposite in2="SourceAlpha" operator="in" result="effect1_backgroundBlur_2759_19379"></feComposite><feBlend mode="normal" in="SourceGraphic" in2="effect1_backgroundBlur_2759_19379" result="shape"></feBlend></filter><filter id="filter1_f_2759_19379" x="308.554" y="-270" width="853.499" height="972.174" filterUnits="userSpaceOnUse" color-interpolation-filters="sRGB"><feFlood flood-opacity="0" result="BackgroundImageFix"></feFlood><feBlend mode="normal" in="SourceGraphic" in2="BackgroundImageFix" result="shape"></feBlend><feGaussianBlur stdDeviation="135" result="effect1_foregroundBlur_2759_19379"></feGaussianBlur></filter><linearGradient id="paint0_linear_2759_19379" x1="795.017" y1="252.891" x2="580.36" y2="312.762" gradientUnits="userSpaceOnUse"><stop stop-color="#26B1FF"></stop><stop offset="1" stop-color="#2589FF"></stop></linearGradient><linearGradient id="paint1_linear_2759_19379" x1="891.937" y1="216" x2="577.281" y2="293.525" gradientUnits="userSpaceOnUse"><stop stop-color="#C3E9FF"></stop><stop offset="0.36575" stop-color="#26B1FF"></stop><stop offset="0.725117" stop-color="#2589FF"></stop><stop offset="1" stop-color="#004FAC"></stop></linearGradient><linearGradient id="paint2_linear_2759_19379" x1="1048.8" y1="216.087" x2="855.689" y2="216.087" gradientUnits="userSpaceOnUse"><stop stop-color="#26B1FF"></stop><stop offset="1" stop-color="#26B1FF" stop-opacity="0"></stop></linearGradient></defs></svg> 