<?xml version="1.0" encoding="UTF-8"?> <svg xmlns="http://www.w3.org/2000/svg" width="103" height="103" viewBox="0 0 103 103" fill="none"><g opacity="0.1" filter="url(#filter0_b_2318_12501)"><rect width="103" height="103" rx="22" fill="white"></rect></g><path fill-rule="evenodd" clip-rule="evenodd" d="M52.0036 63.408C52.0036 63.4076 52.0033 63.4072 52.0029 63.4072C47.0709 63.4072 42.1389 63.4072 37.2069 63.4072C35.8875 63.4072 35 62.5137 35 61.1884C35 56.7253 35 52.2622 35 47.7977C35 46.6606 35.0792 46.6098 36.0683 47.1387C40.6928 49.6101 45.3232 52.071 49.9387 54.5603C51.3283 55.3088 52.6641 55.3118 54.0521 54.5632C58.6527 52.0859 63.2667 49.6325 67.8747 47.1701C68.0241 47.0909 68.169 47.0043 68.3229 46.937C68.81 46.7204 68.9953 46.822 68.9953 47.3404C68.9998 52.0665 69.0043 56.7925 68.9923 61.5186C68.9893 62.5003 67.9614 63.4072 66.9124 63.4087C61.9431 63.4117 56.9737 63.4087 52.0044 63.4087C52.004 63.4087 52.0036 63.4084 52.0036 63.408Z" fill="white"></path><path fill-rule="evenodd" clip-rule="evenodd" d="M51.9964 41.0036C51.9964 41.0044 51.9971 41.0051 51.9979 41.0051C57.2494 41.0051 62.4994 41.0051 67.7509 41.0065C68.1738 41.0065 68.6818 40.9169 68.8775 41.4189C69.0733 41.9225 68.7371 42.3095 68.4233 42.6681C68.2096 42.9116 67.9377 43.076 67.6568 43.2299C63.0921 45.7356 58.5289 48.2443 53.9627 50.7485C52.6613 51.4612 51.348 51.4657 50.048 50.753C45.4819 48.2488 40.9187 45.7386 36.3525 43.2358C35.846 42.9579 35.4127 42.6113 35.1706 42.0764C34.9046 41.4862 35.1482 41.0798 35.7922 41.0125C35.9775 40.9931 36.1672 41.0021 36.354 41.0021C41.5681 41.0021 46.7808 41.0021 51.9949 41.0021C51.9958 41.0021 51.9964 41.0027 51.9964 41.0036Z" fill="white"></path><defs><filter id="filter0_b_2318_12501" x="-102.689" y="-102.689" width="308.379" height="308.379" filterUnits="userSpaceOnUse" color-interpolation-filters="sRGB"><feFlood flood-opacity="0" result="BackgroundImageFix"></feFlood><feGaussianBlur in="BackgroundImageFix" stdDeviation="51.3447"></feGaussianBlur><feComposite in2="SourceAlpha" operator="in" result="effect1_backgroundBlur_2318_12501"></feComposite><feBlend mode="normal" in="SourceGraphic" in2="effect1_backgroundBlur_2318_12501" result="shape"></feBlend></filter></defs></svg> 