<?xml version="1.0" encoding="UTF-8"?> <svg xmlns="http://www.w3.org/2000/svg" width="103" height="103" viewBox="0 0 103 103" fill="none"><g opacity="0.1" filter="url(#filter0_b_333_5084)"><rect width="103" height="103" rx="22" fill="white"></rect></g><path fill-rule="evenodd" clip-rule="evenodd" d="M45.4822 28.043C42.2671 29.7201 39.6247 31.1361 39.6347 31.1964C39.6347 31.347 47.361 35.2537 47.6323 35.2436C47.7529 35.2436 48.6571 34.8218 49.6418 34.3197L51.4302 33.4058L53.3793 34.4101L55.3285 35.4144L58.5235 33.9782C63.3261 31.819 63.8285 31.578 63.7481 31.5077C63.6476 31.3972 61.9195 30.4733 57.2375 28.0128C54.9768 26.8278 52.7865 25.6528 52.3646 25.4218C51.9426 25.1808 51.5407 25 51.4704 25C51.4 25 48.6973 26.3658 45.4822 28.043ZM31.3658 35.3541L28.01 37.0815V44.6738C28.01 48.8516 28.0502 52.2661 28.1105 52.2661C28.1608 52.2661 29.8085 51.5531 31.7778 50.6794L35.3445 49.0926V41.0885L37.0827 42.0325C38.429 42.7657 39.7653 43.4887 41.1117 44.2219L43.4024 45.4571L44.4172 44.9952C45.0602 44.7039 45.6932 44.4127 46.3262 44.1214C46.8185 43.8905 48.0242 43.3481 49.0088 42.9163C49.9934 42.4845 50.8977 42.0426 51.0283 41.9422C51.1991 41.8116 49.1093 40.6567 43.3019 37.674C38.9214 35.4244 35.1938 33.5966 35.023 33.6067C34.8522 33.6167 33.2045 34.4 31.3658 35.3541ZM64.3409 35.8362C62.0602 36.8706 60.1914 37.7543 60.1914 37.8045C60.1914 37.8548 61.4372 38.5979 62.9544 39.4515C64.4815 40.3052 65.7174 41.0484 65.7174 41.1086C65.7174 41.1689 64.371 41.8216 62.7233 42.5548C61.0755 43.2979 56.916 45.1759 53.4698 46.7326L41.9456 51.9448C39.0419 53.2503 36.4296 54.4354 36.1383 54.5659C30.2204 57.2473 28.5827 57.9905 28.3617 58.1211C28.1407 58.2516 28.0904 58.9948 28.0502 62.7407L28 67.2098L30.9941 68.7363L33.9882 70.2628L38.1477 68.3848C40.4284 67.3504 42.3073 66.4566 42.3073 66.3863C42.3073 66.316 41.8853 66.0448 41.3729 65.7737C40.8605 65.5025 39.7955 64.8999 39.0017 64.438C38.218 63.976 37.4344 63.5542 37.2636 63.494C37.0928 63.4337 36.9521 63.3433 36.9521 63.273C36.9521 63.2128 38.7807 62.339 41.0212 61.3448C45.3616 59.4065 48.6772 57.9102 55.8007 54.6864C58.9857 53.2503 62.1707 51.8042 65.3657 50.368C68.1689 49.1027 71.4242 47.6264 72.5997 47.0841L74.7398 46.0999L74.79 41.5806L74.8402 37.0614L71.806 35.5148C70.1381 34.6612 68.7014 33.9582 68.6311 33.9582C68.5507 33.9582 66.6216 34.8118 64.3409 35.8362ZM73.936 52.1456C73.4839 52.3666 72.5997 52.7783 71.9667 53.0595C71.3338 53.3407 70.1281 53.883 69.2942 54.2646L67.777 54.9576L67.7469 58.9245C67.7268 61.1038 67.6464 62.8813 67.566 62.8713C67.3852 62.8412 64.5418 61.385 61.6784 59.8484C59.6086 58.7437 59.478 58.6935 58.9957 58.9345C58.7144 59.0751 57.0365 59.8283 55.2682 60.6016C53.4999 61.385 51.9928 62.0679 51.9225 62.1382C51.8522 62.1984 55.4089 64.1267 59.8397 66.4264L67.8775 70.6042L71.3137 68.8267C73.2025 67.8525 74.8101 66.9587 74.8804 66.8482C75.0512 66.5972 75.0311 51.7138 74.8704 51.7339C74.8001 51.7439 74.3781 51.9247 73.936 52.1456ZM54.9065 69.61C54.3137 69.8611 53.7109 70.1222 53.1181 70.3833C51.3197 71.1566 51.6713 71.1867 49.5312 70.1222C48.1045 69.4091 47.4916 69.1982 47.2204 69.2987C47.0194 69.379 45.3014 70.1523 43.3924 71.016C41.4934 71.8797 39.8658 72.5927 39.7854 72.5927C38.9816 72.5927 40.3179 73.3861 45.442 75.9671L51.4503 79L53.9822 77.7547C55.3687 77.0718 58.1819 75.6959 60.2115 74.7017C62.2511 73.7075 63.8888 72.8739 63.8586 72.8337C63.8285 72.8036 62.1204 71.9299 60.0608 70.8854L56.3232 68.9974L54.9065 69.61Z" fill="white"></path><defs><filter id="filter0_b_333_5084" x="-102.689" y="-102.689" width="308.379" height="308.379" filterUnits="userSpaceOnUse" color-interpolation-filters="sRGB"><feFlood flood-opacity="0" result="BackgroundImageFix"></feFlood><feGaussianBlur in="BackgroundImageFix" stdDeviation="51.3447"></feGaussianBlur><feComposite in2="SourceAlpha" operator="in" result="effect1_backgroundBlur_333_5084"></feComposite><feBlend mode="normal" in="SourceGraphic" in2="effect1_backgroundBlur_333_5084" result="shape"></feBlend></filter></defs></svg> 