<?xml version="1.0" encoding="UTF-8"?> <svg xmlns="http://www.w3.org/2000/svg" width="80" height="80" viewBox="0 0 80 80" fill="none"><rect opacity="0.1" width="80" height="80" rx="20" fill="#D9D9D9"></rect><mask id="mask0_2750_17447" style="mask-type:alpha" maskUnits="userSpaceOnUse" x="22" y="22" width="36" height="36"><rect x="22" y="22" width="35.2466" height="35.2466" fill="#D9D9D9"></rect></mask><g mask="url(#mask0_2750_17447)"><path d="M33.7489 48.4352H45.4978V45.498H33.7489V48.4352ZM33.7489 42.5608H45.4978V39.6236H33.7489V42.5608ZM30.8117 54.3097C30.004 54.3097 29.3125 54.0221 28.7373 53.4468C28.1621 52.8716 27.8745 52.1802 27.8745 51.3724V27.8747C27.8745 27.067 28.1621 26.3755 28.7373 25.8003C29.3125 25.2251 30.004 24.9375 30.8117 24.9375H42.5606L51.3722 33.7491V51.3724C51.3722 52.1802 51.0846 52.8716 50.5094 53.4468C49.9342 54.0221 49.2428 54.3097 48.435 54.3097H30.8117ZM41.092 35.2178H48.435L41.092 27.8747V35.2178Z" fill="white"></path></g></svg> 