<?xml version="1.0" encoding="UTF-8"?> <svg xmlns="http://www.w3.org/2000/svg" width="98" height="39" viewBox="0 0 98 39" fill="none"><path d="M18.7462 29.9199L17.3719 25.9029H8.63311L7.25886 29.9199H0L9.69022 5.2539H16.3148L26.2165 29.9199H18.7462ZM15.7158 20.5821L13.0025 12.9356L10.2893 20.5821H15.7158ZM36.9968 16.7412H50.5279C50.5279 19.3958 49.9876 21.7801 48.907 23.8944C47.8264 25.9851 46.2995 27.6178 44.3262 28.7923C42.3529 29.9669 40.0977 30.5542 37.5606 30.5542C33.755 30.5542 30.6072 29.3326 28.1171 26.8895C25.6505 24.4464 24.4172 21.3573 24.4172 17.6221C24.4172 13.8635 25.6387 10.7626 28.0818 8.31953C30.5484 5.85293 33.6845 4.61963 37.4902 4.61963C40.7085 4.61963 43.5157 5.53579 45.9118 7.36813C48.308 9.20046 49.7644 11.5496 50.2813 14.4156H43.1633C42.717 13.3819 41.977 12.5597 40.9434 11.949C39.9333 11.3147 38.8057 10.9976 37.5606 10.9976C35.7048 10.9976 34.2014 11.6083 33.0503 12.8299C31.9227 14.0514 31.3589 15.6489 31.3589 17.6221C31.3589 18.8907 31.6055 20.03 32.0989 21.0402C32.6157 22.0268 33.3439 22.802 34.2836 23.3658C35.2232 23.9061 36.3156 24.1763 37.5606 24.1763C38.8527 24.1763 40.0037 23.8944 41.0139 23.3306C42.0475 22.7433 42.7522 21.9681 43.1281 21.0049H36.9968V16.7412ZM52.2099 29.9199V5.2539H59.0812V29.9199H52.2099Z" fill="white"></path><path d="M61.5928 5.04688L73.8884 17.429L61.5928 29.811H72.398L84.6937 17.429L72.398 5.04688H61.5928Z" fill="white"></path><path d="M61.5928 5.04688L73.8884 17.429L61.5928 29.811H72.398L84.6937 17.429L72.398 5.04688H61.5928Z" fill="url(#paint0_linear_2473_11251)"></path><path d="M98 5.04688L85.7044 17.429L98 29.811H87.1947L74.8991 17.429L87.1947 5.04688H98Z" fill="url(#paint1_linear_2473_11251)"></path><defs><linearGradient id="paint0_linear_2473_11251" x1="77.5434" y1="19.5378" x2="62.4385" y2="24.9556" gradientUnits="userSpaceOnUse"><stop stop-color="#26B1FF"></stop><stop offset="1" stop-color="#2589FF"></stop></linearGradient><linearGradient id="paint1_linear_2473_11251" x1="96.2443" y1="17.429" x2="82.0142" y2="17.429" gradientUnits="userSpaceOnUse"><stop stop-color="#26B1FF"></stop><stop offset="1" stop-color="#26B1FF" stop-opacity="0"></stop></linearGradient></defs></svg> 