<?xml version="1.0" encoding="UTF-8"?> <svg xmlns="http://www.w3.org/2000/svg" width="103" height="103" viewBox="0 0 103 103" fill="none"><g opacity="0.1" filter="url(#filter0_b_2318_12497)"><rect width="103" height="103" rx="22" fill="white"></rect></g><path d="M50.9444 30.4414C62.2595 30.4414 71.4315 39.6134 71.4315 50.9284C71.4315 62.2435 62.2595 71.4155 50.9444 71.4155C39.6294 71.4155 30.4574 62.2435 30.4574 50.9284C30.4574 39.6134 39.6294 30.4414 50.9444 30.4414ZM58.0116 59.2791C58.3884 58.123 60.1538 46.6003 60.372 44.3298C60.438 43.6422 60.2206 43.1852 59.7948 42.9813C59.28 42.7336 58.5175 42.8574 57.633 43.1763C56.4198 43.6137 40.9102 50.1989 40.0142 50.5802C39.1644 50.9409 38.3609 51.3346 38.3609 51.9047C38.3609 52.3055 38.5988 52.5309 39.2544 52.7652C39.9367 53.0083 41.6549 53.5294 42.6695 53.8091C43.6466 54.079 44.7591 53.8447 45.3827 53.4573C46.0436 53.0466 53.671 47.9427 54.2188 47.4955C54.7657 47.0484 55.2022 47.6211 54.755 48.0692C54.3079 48.5163 49.0721 53.598 48.3818 54.3017C47.5436 55.1559 48.1386 56.0413 48.7007 56.3958C49.3429 56.8002 53.9614 59.8982 54.657 60.3952C55.3527 60.8923 56.0582 61.1176 56.704 61.1176C57.3498 61.1176 57.69 60.267 58.0116 59.2791Z" fill="white"></path><defs><filter id="filter0_b_2318_12497" x="-102.689" y="-102.689" width="308.379" height="308.379" filterUnits="userSpaceOnUse" color-interpolation-filters="sRGB"><feFlood flood-opacity="0" result="BackgroundImageFix"></feFlood><feGaussianBlur in="BackgroundImageFix" stdDeviation="51.3447"></feGaussianBlur><feComposite in2="SourceAlpha" operator="in" result="effect1_backgroundBlur_2318_12497"></feComposite><feBlend mode="normal" in="SourceGraphic" in2="effect1_backgroundBlur_2318_12497" result="shape"></feBlend></filter></defs></svg> 