<?xml version="1.0" encoding="UTF-8"?> <svg xmlns="http://www.w3.org/2000/svg" width="913" height="510" viewBox="0 0 913 510" fill="none"> <g opacity="0.2"> <mask id="mask0_874_21645" style="mask-type:alpha" maskUnits="userSpaceOnUse" x="109" y="79" width="487" height="352"> <ellipse cx="352.5" cy="254.556" rx="243.5" ry="175.556" fill="#D9D9D9"></ellipse> </mask> <g mask="url(#mask0_874_21645)"> <line x1="-229.453" y1="113.183" x2="912.507" y2="113.183" stroke="white" stroke-width="0.844021"></line> <line x1="-229.453" y1="168.89" x2="912.507" y2="168.89" stroke="white" stroke-width="0.844021"></line> <line x1="-229.453" y1="224.596" x2="912.507" y2="224.596" stroke="white" stroke-width="0.844021"></line> <line x1="-229.453" y1="280.301" x2="912.507" y2="280.301" stroke="white" stroke-width="0.844021"></line> <line x1="-229.453" y1="336.006" x2="912.507" y2="336.006" stroke="white" stroke-width="0.844021"></line> <line x1="-229.453" y1="391.711" x2="912.507" y2="391.711" stroke="white" stroke-width="0.844021"></line> <line x1="142.344" y1="509.451" x2="142.344" y2="0.506622" stroke="white" stroke-width="0.844021"></line> <line x1="198.047" y1="509.451" x2="198.047" y2="0.506622" stroke="white" stroke-width="0.844021"></line> <line x1="255.437" y1="509.451" x2="255.437" y2="0.506622" stroke="white" stroke-width="0.844021"></line> <line x1="311.148" y1="509.451" x2="311.148" y2="0.506622" stroke="white" stroke-width="0.844021"></line> <line x1="366.851" y1="509.451" x2="366.851" y2="0.506622" stroke="white" stroke-width="0.844021"></line> <line x1="422.555" y1="509.451" x2="422.555" y2="0.506622" stroke="white" stroke-width="0.844021"></line> <line x1="478.265" y1="509.451" x2="478.266" y2="0.506622" stroke="white" stroke-width="0.844021"></line> <line x1="533.969" y1="509.451" x2="533.969" y2="0.506622" stroke="white" stroke-width="0.844021"></line> <line x1="589.672" y1="509.451" x2="589.672" y2="0.506622" stroke="white" stroke-width="0.844021"></line> </g> </g> </svg> 